# Blender v2.81 (sub 16) OBJ File: 'wall_tile.blend'
# www.blender.org
mtllib wall_tile.mtl
o wall_tile_Cube.017
v 0.200000 0.800000 -1.000000
v -0.200000 0.800000 -1.000000
v 0.200000 0.800000 1.000000
v -0.200000 0.800000 1.000000
v 0.200000 -0.800000 -1.000000
v -0.200000 -0.800000 -1.000000
v 0.200000 -0.800000 1.000000
v -0.200000 -0.800000 1.000000
vt 0.000000 1.000000
vt 0.000000 0.000000
vt 1.000000 0.000000
vt 1.000000 1.000000
vt 0.000000 1.000000
vt 0.000000 0.000000
vt 1.000000 0.000000
vt 1.000000 1.000000
vt 0.375000 0.000000
vt 0.625000 0.000000
vt 0.625000 0.250000
vt 0.375000 0.250000
vt 0.625000 0.500000
vt 0.375000 0.500000
vt 0.625000 0.750000
vt 0.375000 0.750000
vt 0.625000 1.000000
vt 0.375000 1.000000
vn 1.0000 -0.0000 0.0000
vn -1.0000 0.0000 0.0000
vn 0.0000 1.0000 0.0000
vn 0.0000 0.0000 1.0000
vn 0.0000 -1.0000 0.0000
vn 0.0000 0.0000 -1.0000
g wall_tile_Cube.017_Wall
usemtl Wall
s off
f 3/1/1 7/2/1 5/3/1 1/4/1
f 8/5/2 4/6/2 2/7/2 6/8/2
g wall_tile_Cube.017_Dummy
usemtl Dummy
f 1/9/3 2/10/3 4/11/3 3/12/3
f 3/12/4 4/11/4 8/13/4 7/14/4
f 7/14/5 8/13/5 6/15/5 5/16/5
f 5/16/6 6/15/6 2/17/6 1/18/6
